<?xml version="1.0" encoding="utf-8"?>
<!-- Generator: Adobe Illustrator 17.1.0, SVG Export Plug-In . SVG Version: 6.00 Build 0)  -->
<!DOCTYPE svg PUBLIC "-//W3C//DTD SVG 1.1//EN" "http://www.w3.org/Graphics/SVG/1.1/DTD/svg11.dtd">
<svg version="1.1" id="Ebene_1" xmlns="http://www.w3.org/2000/svg" xmlns:xlink="http://www.w3.org/1999/xlink" x="0px" y="0px"
	 viewBox="0 0 800 800" enable-background="new 0 0 800 800" xml:space="preserve" width="800px" height="800px">
<g>
	<polyline fill="#FFFFFF" points="0,799.999 800,799.999 800,-0.001 0,-0.001 	"/>
	<path fill="#1D1D1B" d="M768.967,31.048v737.898H31.033V31.048H768.967 M800-0.001H0v800h800V-0.001z"/>
	<path fill="#1D1D1B" d="M336.542,98.753c3.198-1.241,9.095-2.398,12.486-2.398h41.341v24.387h16.977V96.355h45.998
		c3.225,0,9.123,1.241,12.072,2.563l47.708,21.278l6.945-15.463l-47.735-21.332c-5.154-2.288-13.34-4.052-18.99-4.052H349.027
		c-5.596,0-13.698,1.599-18.851,3.666l-52.365,21.306l6.393,15.709"/>
	<path fill="#1D1D1B" d="M593.131,559.635v-0.277l0.027-0.246c12.017-147.952-8.515-321.673-8.736-323.383
		c-7.551-45.917-36.435-72.597-36.71-72.845l-0.276-0.276c-28.525-29.491-60.991-29.823-61.323-29.823H313.914
		c-0.33,0-33.017,0.497-61.322,29.823l-0.276,0.276c-0.303,0.247-29.132,26.928-36.739,73.12
		c-0.193,1.434-20.725,175.209-8.737,323.107v0.246v0.277c0,2.287,0.91,56.693,81.827,89.243
		c9.785,0.221,82.406,1.792,111.318,2.784c28.966-0.991,101.588-2.563,111.344-2.784
		C592.718,616.136,593.131,560.212,593.131,559.635"/>
	<path fill="#1D1D1B" d="M287.319,660.868h-1.075l-1.02-0.413c-1.681-0.662-3.279-1.379-4.905-2.068v60.443h21.221V661.2
		C293.024,661.006,287.512,660.896,287.319,660.868"/>
	<path fill="#1D1D1B" d="M514.776,660.455l-0.992,0.413h-1.102c-0.165,0.027-5.622,0.138-14.166,0.331v57.631h21.221v-60.443
		C518.084,659.076,516.485,659.793,514.776,660.455"/>
	<path fill="#FFFFFF" d="M290.93,512.229c-14.056,0-25.466-11.44-25.466-25.523c0-14.057,11.409-25.522,25.466-25.522
		c14.056,0,25.466,11.465,25.466,25.522C316.395,500.79,304.985,512.229,290.93,512.229"/>
	<path fill="#FFFFFF" d="M523.844,512.229c-14.084,0-25.494-11.44-25.494-25.523c0-14.057,11.41-25.522,25.494-25.522
		c14.056,0,25.493,11.465,25.493,25.522C549.337,500.79,537.899,512.229,523.844,512.229"/>
	<path fill="#FFFFFF" d="M398.856,202.297c-14.083,0-25.521-11.438-25.521-25.494c0-14.057,11.438-25.495,25.521-25.495
		c14.056,0,25.521,11.438,25.521,25.495C424.377,190.859,412.913,202.297,398.856,202.297"/>
	<path fill="#FFFFFF" d="M398.526,222.198h135.956c0,0,21.139,87.204,20.037,111.099H243.222
		c-1.103-23.896,23.647-111.099,23.647-111.099H398.526"/>
</g>
</svg>
