<?xml version="1.0" encoding="UTF-8" standalone="no"?>
<!-- Created with Inkscape (http://www.inkscape.org/) -->

<svg
   xmlns:dc="http://purl.org/dc/elements/1.1/"
   xmlns:cc="http://creativecommons.org/ns#"
   xmlns:rdf="http://www.w3.org/1999/02/22-rdf-syntax-ns#"
   xmlns:svg="http://www.w3.org/2000/svg"
   xmlns="http://www.w3.org/2000/svg"
   xmlns:sodipodi="http://sodipodi.sourceforge.net/DTD/sodipodi-0.dtd"
   xmlns:inkscape="http://www.inkscape.org/namespaces/inkscape"
   width="99"
   height="32.999794"
   id="svg2"
   version="1.1"
   inkscape:version="0.48.0 r9654"
   sodipodi:docname="Neues Dokument 1">
  <defs
     id="defs4" />
  <sodipodi:namedview
     id="base"
     pagecolor="#ffffff"
     bordercolor="#666666"
     borderopacity="1.0"
     inkscape:pageopacity="0.0"
     inkscape:pageshadow="2"
     inkscape:zoom="3.959798"
     inkscape:cx="123.24239"
     inkscape:cy="2.5258216"
     inkscape:document-units="px"
     inkscape:current-layer="layer1"
     showgrid="false"
     fit-margin-top="0"
     fit-margin-left="0"
     fit-margin-right="0"
     fit-margin-bottom="0"
     inkscape:window-width="1194"
     inkscape:window-height="795"
     inkscape:window-x="50"
     inkscape:window-y="50"
     inkscape:window-maximized="0" />
  <metadata
     id="metadata7">
    <rdf:RDF>
      <cc:Work
         rdf:about="">
        <dc:format>image/svg+xml</dc:format>
        <dc:type
           rdf:resource="http://purl.org/dc/dcmitype/StillImage" />
        <dc:title></dc:title>
      </cc:Work>
    </rdf:RDF>
  </metadata>
  <g
     inkscape:label="Ebene 1"
     inkscape:groupmode="layer"
     id="layer1"
     transform="translate(-0.13291856,-1019.5964)">
    <path
       style="fill:#438136"
       d="m 0.24370652,1036.1331 c -0.10851776,-8.9891 -0.14335121,-16.3988 -0.0774078,-16.4659 0.0659436,-0.066 22.27413128,-0.091 49.35153228,-0.053 l 49.231633,0.067 -48.989259,16.4081 c -26.944093,9.0244 -49.06349448,16.4034 -49.1542264,16.3977 -0.090732,-0.011 -0.25375439,-7.3651 -0.36227217,-16.3542 z"
       id="path3003"
       inkscape:connector-curvature="0" />
    <path
       style="fill:#C40C37"
       d="m 99.022127,1036.0594 c 0.108522,8.9891 0.143347,16.3987 0.07742,16.4659 -0.06596,0.066 -22.274128,0.091 -49.35153,0.053 l -49.2316311,-0.067 48.9892591,-16.4081 c 26.944089,-9.0243 49.063491,-16.4034 49.154226,-16.3976 0.09077,0.011 0.253752,7.3651 0.362263,16.3542 z"
       id="path3003-9"
       inkscape:connector-curvature="0" />
  </g>
</svg>
